<svg version="1.0" xmlns="http://www.w3.org/2000/svg" width="32" height="32" viewBox="0 0 512 512"><path d="M36 1.9c-9.1 2.9-14.2 6.1-21.1 13-7 7-10.6 13-13.3 22C.2 41.9 0 62.4 0 256c0 234.3-.4 217.3 5.8 229.5 3.2 6.4 14.3 17.5 20.7 20.7 12.2 6.2-4.8 5.8 229.5 5.8s217.3.4 229.5-5.8c6.4-3.2 17.5-14.3 20.7-20.7 6.2-12.2 5.8 4.8 5.8-229.5s.4-217.3-5.8-229.5C503 20.1 491.9 9 485.5 5.8 473.3-.4 490.4 0 255.6.1 53.2.1 41.2.2 36 1.9zm314.9 86.8c30.1 6 45.1 24.7 45.1 56.3 0 22-7.1 38.9-23 55.1-15.3 15.6-32.9 25-59.5 31.8-9.1 2.3-28.8 5.1-37.3 5.2-10.7.2-10.5 0-11.9 11.9-1.8 16.5-3.3 44.6-3.3 62.3 0 15-.8 27-2.5 37.4l-.7 4.2 13.8 6.9c17.1 8.6 25.7 11.7 36.2 13.2 12.2 1.8 21.5 1 28.3-2.3 7.2-3.5 20.7-16.1 33.5-31.4 14.1-16.7 19.1-21.9 22.4-23.3 6-2.5 9 2.6 9 15-.1 21-11.9 43.6-33 63.2-18 16.8-41.1 25.8-66 25.8-19.1 0-37.8-5.7-60.4-18.2l-8.8-4.9-5.7 5.3c-9.5 9.1-20.3 15.5-33.1 19.6-9.9 3.2-17.2 4.2-30.5 4.2-19.2 0-30.4-3.9-39.6-13.7-8.8-9.4-13.6-24.1-12.5-38.4 1.3-18.8 10.7-30.5 29.9-37.4 9.9-3.6 21.1-4.9 38.4-4.2l15.3.5v-3.6c0-2.1.5-11.6 1-21.2 1.5-25.6 4.4-47.9 9.1-70 1.1-5.2 1.6-9.6 1.1-9.8-2.8-.9-19.6-12.7-24.4-17.1-8.6-7.8-10.2-11-9.5-18.3.4-4.3 1.1-6.7 2.6-8.1 1.9-1.9 2.5-2 8.2-.9 3.4.6 9.1 2.5 12.8 4.3 6.4 3 20.2 8.2 20.6 7.6.1-.1 2.4-5.6 5-12.2 16.6-42 36.7-69.3 62.4-84.9 10.5-6.4 23.5-10.8 35.6-11.9 6.6-.7 23.5.4 31.4 2z"/><path d="M314 131.7c-16.7 5.8-30.8 27-39.4 59.2l-2.4 9 4.6-.5c9.4-1.2 22-4.3 30.1-7.4 16.7-6.5 35.1-21.6 38.5-31.8 1.9-5.4 2.1-13.5.5-18.3-1.5-4.3-5.5-8.8-9.6-10.5-4.3-1.9-16.7-1.7-22.3.3zM161.3 368.5c-4.8 2.5-6.5 5-7.1 10.3-.3 4.1 0 5.2 2.3 8 6.2 7.4 21.8 7 28.8-.7 3-3.4 7.6-12.7 6.6-13.4-.2-.2-2.9-1.4-5.9-2.7-7.2-3.1-20-3.8-24.7-1.5z"/></svg>