<?xml version="1.0" standalone="no"?>
<!DOCTYPE svg PUBLIC "-//W3C//DTD SVG 1.1//EN" "http://www.w3.org/Graphics/SVG/1.1/DTD/svg11.dtd" >
<svg xmlns="http://www.w3.org/2000/svg" xmlns:xlink="http://www.w3.org/1999/xlink" version="1.1">
<metadata>
Created by FontForge 20190801 at Fri Feb 16 12:57:55 2024
 By www-data
(c) 2016 Microsoft Corporation. All Rights Reserved.
</metadata>
<defs>
<font id="georgiasubset" horiz-adv-x="1317" >
  <font-face 
    font-family="georgiasubset"
    font-weight="400"
    font-stretch="normal"
    units-per-em="2048"
    panose-1="2 4 5 2 5 4 5 2 3 3"
    ascent="1638"
    descent="-410"
    x-height="986"
    cap-height="1419"
    bbox="-151 -444 2028 1549"
    underline-thickness="101"
    underline-position="-229"
    unicode-range="U+0020-007E"
  />
<missing-glyph horiz-adv-x="748" 
d="M68 0v1365h544v-1365h-544zM136 68h408v1229h-408v-1229z" />
    <glyph glyph-name=".notdef" horiz-adv-x="748" 
d="M68 0v1365h544v-1365h-544zM136 68h408v1229h-408v-1229z" />
    <glyph glyph-name=".null" horiz-adv-x="0" 
 />
    <glyph glyph-name="nonmarkingreturn" horiz-adv-x="682" 
 />
    <glyph glyph-name="space" unicode=" " horiz-adv-x="494" 
 />
    <glyph glyph-name="exclam" unicode="!" horiz-adv-x="678" 
d="M472 1321q0 -49 -33 -336q-30 -264 -58 -553h-78q-24 281 -55 553q-32 278 -32 336q0 57 36 96t92 39q57 0 92 -38q36 -39 36 -97zM481 115q0 -56 -41 -95q-42 -40 -96 -40t-96 40q-41 39 -41 95t41 97q40 40 96 40t96 -40q41 -41 41 -97z" />
    <glyph glyph-name="quotedbl" unicode="&#x22;" horiz-adv-x="843" 
d="M725 1417q0 -38 -26 -154q-30 -132 -58 -296h-62q-23 149 -51 282q-29 136 -29 168q0 47 28 79q29 33 85 33t84 -33q29 -34 29 -79zM343 1417q0 -38 -26 -154q-30 -132 -58 -296h-61q-28 175 -54 291t-26 159q0 47 28 79q28 33 85 33q55 0 83 -33q29 -34 29 -79z" />
    <glyph glyph-name="numbersign" unicode="#" 
d="M1163 745h-249l-72 -251h261v-123h-296l-107 -371h-111l107 371h-217l-107 -371h-111l107 371h-214v123h249l73 251h-262v123h296l105 362h111l-105 -362h217l105 362h111l-105 -362h214v-123zM807 747h-222l-74 -255h221z" />
    <glyph glyph-name="dollar" unicode="$" horiz-adv-x="1249" 
d="M1018 580q39 -38 62 -91q23 -54 23 -124q0 -157 -120 -263q-121 -107 -302 -119v-282h-82v280q-197 4 -321 95q-123 90 -123 224q0 58 26 90t73 32q54 0 83 -26q30 -27 30 -63q0 -28 -19 -81q-19 -51 -24 -75q29 -53 100 -84q72 -32 175 -33v506q-13 5 -26.5 10t-28.5 10
t-22 8q-37 14 -85 34q-114 46 -180 124q-65 77 -65 198q0 144 120 243t287 102v229h82v-229q97 -1 175 -29q77 -27 124 -67q48 -41 72 -88q25 -50 25 -93q0 -44 -21 -76t-69 -32q-49 0 -81 25q-33 25 -33 56q0 35 8 73q3 13 7.5 35t6.5 30q-3 5 -20 21q-16 15 -40 29
q-29 15 -66 25q-42 11 -88 11v-464q6 -2 65 -25q9 -4 31 -12t35 -13q58 -23 114 -53q52 -28 92 -68zM599 775v440q-98 0 -163 -55q-66 -56 -66 -135q0 -86 41 -139q39 -50 124 -86q12 -4 30 -12q12 -5 34 -13zM915 284q0 81 -43 142q-42 61 -144 101q-4 1 -8 2.5t-8.5 3.5
t-7.5 3t-11 3.5t-12 4.5v-483q117 7 175 67q59 61 59 156z" />
    <glyph glyph-name="percent" unicode="%" horiz-adv-x="1674" 
d="M788 1083q0 -175 -95 -273q-94 -97 -245 -97q-150 0 -244 97q-95 98 -95 273q0 166 93 268t247 102q153 0 246 -102t93 -268zM619 1083q0 131 -43 213q-44 83 -127 83q-87 0 -129 -83q-42 -82 -42 -213q0 -135 43 -215q43 -81 127 -81t128 81q43 80 43 215zM1565 338
q0 -175 -95 -273q-94 -97 -245 -97t-245 97t-94 273q0 167 92 268q93 102 248 102q153 0 246 -102t93 -268zM1396 338q0 131 -43 213q-44 83 -127 83q-86 0 -128 -83q-43 -84 -43 -213q0 -134 43 -214q44 -82 127 -82t127 82t44 214zM1499 1424l-1179 -1424h-138l1176 1424
h141z" />
    <glyph glyph-name="ampersand" unicode="&#x26;" horiz-adv-x="1455" 
d="M1454 828q-52 -4 -119 -24q-61 -18 -92 -58q-23 -26 -43 -71q-21 -47 -51 -111q-35 -75 -61 -126q-35 -68 -80 -124q40 -48 98 -104q57 -56 99 -82q41 -23 113 -39q73 -16 121 -18v-71h-412l-149 170q-21 -23 -76 -74q-39 -37 -89 -67q-54 -31 -105 -47q-54 -17 -123 -17
q-73 0 -147 21q-70 20 -133 69q-58 46 -94 118t-36 172q0 126 65 225q66 100 245 213q-80 105 -126 185q-45 78 -45 175q0 68 28 127q26 55 77 100q46 38 112 61q65 22 134 22q82 0 141 -25t98 -67q36 -40 54 -88q18 -49 18 -100q0 -121 -74 -207q-73 -85 -206 -155
q89 -121 184 -231q92 -107 173 -206q64 101 104 202q37 93 37 166q0 32 -46 50q-55 21 -129 36v71h535v-71zM747 1153q0 103 -45 157t-128 54q-47 0 -78 -19q-30 -18 -53 -48q-20 -30 -29 -60q-9 -31 -9 -57q0 -70 36 -140q35 -69 112 -170q104 59 149 126q45 68 45 157z
M825 228q-89 113 -209 258q-116 140 -187 238q-81 -56 -115 -132q-33 -75 -33 -172q0 -137 77 -226t208 -89q75 0 144 31t115 92z" />
    <glyph glyph-name="quotesingle" unicode="'" horiz-adv-x="441" 
d="M333 1417q0 -38 -26 -154q-30 -132 -58 -296h-61q-28 175 -54 291t-26 159q0 47 28 79q28 33 85 33q55 0 83 -33q29 -34 29 -79z" />
    <glyph glyph-name="parenleft" unicode="(" horiz-adv-x="768" 
d="M701 -328q-274 35 -429 275t-155 649q0 417 155 658q155 242 429 278v-83q-191 -34 -292 -245q-100 -209 -100 -610q0 -379 98 -592q98 -212 294 -248v-82z" />
    <glyph glyph-name="parenright" unicode=")" horiz-adv-x="768" 
d="M651 596q0 -409 -155 -649t-429 -275v82q196 36 294 248q98 213 98 592q0 401 -100 610q-101 211 -292 245v83q274 -36 429 -278q155 -241 155 -658z" />
    <glyph glyph-name="asterisk" unicode="*" horiz-adv-x="967" 
d="M882 1099q0 -37 -21 -54q-22 -17 -54 -17q-17 0 -105 22q-84 21 -188 33q43 -59 84 -103q9 -10 23.5 -25t24 -26t17.5 -19q27 -28 42 -51t15 -47q0 -28 -24 -47q-25 -20 -51 -20q-17 0 -34 11t-27 29q-17 30 -32 93q-14 60 -68 188q-46 -113 -67 -188q-20 -72 -33 -93
q-15 -21 -26 -30q-13 -10 -35 -10q-28 0 -51 19q-24 20 -24 48q0 23 14 45q12 19 43 53q11 11 67 71q40 43 82 102q-98 -11 -182 -33q-82 -22 -111 -22q-34 0 -54 16q-21 16 -21 55q0 35 21 53t54 18q30 0 105 -21q77 -22 188 -32q-43 58 -82 101q-20 22 -67 72
q-24 25 -43 52q-14 20 -14 46q0 28 24 47q25 20 51 20q19 0 33 -10q17 -12 28 -30q16 -28 37 -107q23 -84 63 -174q45 103 66 178q22 81 34 103q9 17 26 29q16 11 35 11q28 0 51 -19q24 -20 24 -48q0 -40 -56 -96q-57 -57 -150 -175q109 12 188 33q76 20 105 20q33 0 54 -18
t21 -53z" />
    <glyph glyph-name="plus" unicode="+" 
d="M1173 497h-451v-451h-127v451h-451v125h451v451h127v-451h451v-125z" />
    <glyph glyph-name="comma" unicode="," horiz-adv-x="552" 
d="M429 35q0 -72 -33 -136q-33 -65 -74 -110q-43 -48 -91 -85q-47 -37 -88 -58l-46 67q50 31 86 60q39 31 62 60q29 33 51 76q21 41 27 93h-51q-66 0 -104 35t-38 94q0 43 34 81q35 40 93 40q85 0 129 -58q43 -56 43 -159z" />
    <glyph glyph-name="hyphen" unicode="-" horiz-adv-x="766" 
d="M681 465h-596v157h596v-157z" />
    <glyph glyph-name="period" unicode="." horiz-adv-x="552" 
d="M415 115q0 -56 -41 -95q-42 -40 -96 -40t-96 40q-41 39 -41 95t41 97q40 40 96 40t96 -40q41 -41 41 -97z" />
    <glyph glyph-name="slash" unicode="/" horiz-adv-x="960" 
d="M870 1523l-691 -1947h-130l689 1947h132z" />
    <glyph glyph-name="zero" unicode="0" horiz-adv-x="1257" 
d="M1027 934q63 -75 95 -180t32 -217q0 -135 -39 -243t-107 -179q-69 -72 -166 -110q-95 -37 -214 -37q-131 0 -230 43q-102 44 -164 118q-64 76 -98 183q-33 105 -33 225t31 219q31 100 99 181q65 78 165 123t231 45q139 0 235 -46q100 -48 163 -125zM933 537
q0 239 -81 369q-81 131 -222 131t-224 -131q-82 -130 -82 -369q0 -225 78 -363t226 -138q146 0 226 138q79 137 79 363z" />
    <glyph glyph-name="one" unicode="1" horiz-adv-x="880" 
d="M809 0h-674v71q9 0 22 1.5t34 4t37 3.5q67 6 88 13q32 11 48 33t16 67v702h-249v84h55q110 0 194 40q85 40 122 86h83q-3 -63 -6 -152q-3 -87 -3 -156v-593q0 -33 16 -62q15 -27 44 -41q27 -11 85 -20q53 -8 88 -10v-71z" />
    <glyph glyph-name="two" unicode="2" horiz-adv-x="1144" 
d="M1047 0h-937v136q26 30 75 70q40 33 114 83q46 30 96 59q69 39 127 70q79 42 122 74q41 31 77 79q25 35 37 77q14 48 14 133q0 125 -67 183q-68 59 -172 59q-66 0 -123 -25q-58 -25 -87 -71q2 -9 7.5 -34.5t9.5 -41.5q11 -46 11 -86q0 -37 -31 -67q-32 -30 -94 -30
q-50 0 -77 34t-27 93q0 55 30 109q29 52 86 100q55 44 136 73q80 28 175 28q206 0 325 -91q121 -92 121 -245q0 -73 -21 -133q-20 -58 -70 -106q-54 -52 -124 -88q-71 -36 -217 -101q-87 -39 -162 -81q-73 -41 -123 -83h769v-177z" />
    <glyph glyph-name="three" unicode="3" horiz-adv-x="1130" 
d="M487 -365q-97 0 -172 23q-80 25 -134 64q-59 43 -87 92q-30 52 -30 107q0 50 24 89t77 39q61 0 91 -29q32 -30 32 -68q0 -34 -10 -81q-9 -41 -17 -70q9 -10 25 -24q17 -14 46 -27q30 -14 67 -24q35 -9 99 -9q59 0 116 20q53 19 97 64q47 50 69 107q24 62 24 162
q0 54 -12 107q-13 56 -42 92q-33 41 -84 61q-54 21 -136 21h-131v115h87q138 0 199 76t61 229q0 125 -59 189q-59 63 -167 63q-50 0 -86 -13q-33 -12 -54 -24q-21 -11 -41 -31q-6 -6 -14 -14.5t-10 -10.5q3 -11 8.5 -37.5t8.5 -40.5q10 -44 10 -89q0 -37 -32 -67
q-30 -29 -92 -29q-54 0 -78 38q-24 37 -24 88t29 106q29 54 86 101q59 49 139 76q84 29 189 29q120 0 203 -37q81 -36 127 -88t62 -107q17 -57 17 -96q0 -48 -14 -101q-12 -46 -46 -93q-33 -45 -92 -85q-56 -39 -145 -63v-16q52 -4 119 -25q64 -20 115 -59q53 -41 87 -105
t34 -164q0 -192 -154 -312q-153 -119 -385 -119z" />
    <glyph glyph-name="four" unicode="4" horiz-adv-x="1157" 
d="M1084 90h-203v-455h-192v455h-640v154l701 855h131v-878h203v-131zM689 221v655l-540 -655h540z" />
    <glyph glyph-name="five" unicode="5" horiz-adv-x="1082" 
d="M843 469q66 -53 109 -134q44 -83 44 -205q0 -216 -147 -355q-148 -140 -373 -140q-174 0 -296 83q-121 82 -121 193q0 52 25 89q26 38 77 38q59 0 91 -32t32 -68q0 -30 -11 -80q-9 -40 -17 -71q5 -5 26 -19t43 -23q23 -9 63 -19q38 -9 88 -9q63 0 121 26q56 25 96 77
q44 56 65 128t21 181q0 139 -79 233q-78 93 -206 93q-81 0 -150 -30t-124 -100l-67 26l85 722h716v-178h-635l-52 -424q44 31 119 63t161 32q75 0 151 -22q80 -23 145 -75z" />
    <glyph glyph-name="six" unicode="6" horiz-adv-x="1159" 
d="M1075 461q0 -105 -37 -195q-36 -89 -101 -155q-74 -74 -161 -108q-90 -35 -185 -35q-110 0 -201 41q-89 40 -153 116q-65 77 -99 186q-35 111 -35 247q0 357 213 602t569 294l18 -90l-90 -16q-217 -70 -335 -218q-120 -150 -154 -359q84 74 170 106q83 31 177 31
q166 0 285 -128t119 -319zM858 434q0 164 -74 260q-75 98 -200 98q-77 0 -140 -28q-64 -28 -124 -94q-1 -12 -3 -56q-2 -58 -2 -68q0 -233 77 -366t201 -133q119 0 192 103t73 284z" />
    <glyph glyph-name="seven" unicode="7" horiz-adv-x="1029" 
d="M1029 1008l-713 -1373h-125l671 1270h-393q-70 0 -136 -2q-47 -1 -90 -19q-32 -14 -55 -66q-25 -55 -38 -137h-61v392h940v-65z" />
    <glyph glyph-name="eight" unicode="8" horiz-adv-x="1221" 
d="M1117 376q0 -168 -145 -289t-381 -121q-221 0 -354 111t-133 286q0 128 78 215t233 147q-127 70 -190 156q-63 85 -63 192q0 163 138 273q139 110 332 110q191 0 312 -104q120 -104 120 -261q0 -101 -66 -191t-194 -149q165 -70 240 -157q73 -85 73 -218zM875 1102
q0 120 -73 198q-72 77 -185 77t-185 -73q-72 -74 -72 -183q0 -105 82 -178q83 -74 292 -156q75 48 108 127q33 80 33 188zM917 329q0 63 -27 111q-26 46 -78 86t-136 80q-53 25 -190 84q-97 -53 -141 -132q-45 -81 -45 -184q0 -149 86 -238q87 -90 231 -90q137 0 219 80
q81 80 81 203z" />
    <glyph glyph-name="nine" unicode="9" horiz-adv-x="1159" 
d="M1056 516q0 -176 -55 -328q-56 -156 -158 -269q-100 -113 -247 -189q-148 -76 -325 -100l-18 90l90 16q214 67 336 209q122 141 156 358q-82 -70 -163 -103q-79 -32 -184 -32q-164 0 -284 127t-120 320q0 206 140 349q139 142 344 142q224 0 356 -159t132 -431zM844 528
q0 235 -76 366q-77 133 -202 133q-118 0 -192 -103q-73 -101 -73 -282q0 -162 75 -260t199 -98q80 0 143 28q65 29 121 92q0 8 1 16q2 16 2 34q0 21 1 34t1 40z" />
    <glyph glyph-name="colon" unicode=":" horiz-adv-x="640" 
d="M457 853q0 -55 -41 -96q-40 -40 -96 -40t-96 40q-41 41 -41 96q0 57 40 97t97 40t97 -40t40 -97zM457 115q0 -56 -41 -95q-42 -40 -96 -40t-96 40q-41 39 -41 95t41 97q40 40 96 40t96 -40q41 -41 41 -97z" />
    <glyph glyph-name="semicolon" unicode=";" horiz-adv-x="640" 
d="M457 853q0 -55 -41 -96q-40 -40 -96 -40t-96 40q-41 41 -41 96q0 57 40 97t97 40t97 -40t40 -97zM474 35q0 -74 -32 -135q-35 -67 -75 -111q-43 -48 -91 -85q-47 -37 -88 -58l-46 67q45 28 86 61q32 26 62 59q29 33 51 76q21 41 27 93h-51q-67 0 -105 35q-37 34 -37 94
q0 43 34 81q35 40 93 40q85 0 129 -58q43 -56 43 -159z" />
    <glyph glyph-name="less" unicode="&#x3c;" 
d="M1118 22l-925 481v113l925 481v-137l-769 -400l769 -401v-137z" />
    <glyph glyph-name="equal" unicode="=" 
d="M1163 683h-1009v125h1009v-125zM1163 311h-1009v125h1009v-125z" />
    <glyph glyph-name="greater" unicode="&#x3e;" 
d="M1124 503l-925 -481v137l769 401l-769 400v137l925 -481v-113z" />
    <glyph glyph-name="question" unicode="?" horiz-adv-x="980" 
d="M771 1329q53 -56 81 -131q27 -72 27 -157q0 -185 -118 -302q-119 -117 -324 -141v-221h-92v379q61 4 125 20q58 14 111 51q51 38 79 89q29 53 29 147q0 151 -63 230q-63 80 -186 80q-47 0 -80 -13t-51 -26q12 -64 13 -69q9 -45 9 -69q0 -38 -32 -68q-31 -30 -93 -30
q-55 0 -77 37q-23 38 -23 86q0 41 22 79q21 37 69 74q43 34 109 55q71 23 142 23q103 0 188 -34q82 -33 135 -89zM531 115q0 -56 -41 -95q-42 -40 -96 -40t-96 40q-41 39 -41 95t41 97q40 40 96 40t96 -40q41 -41 41 -97z" />
    <glyph glyph-name="at" unicode="@" horiz-adv-x="1902" 
d="M1530 -119q-101 -87 -238 -141q-135 -53 -306 -53q-148 0 -297 49q-146 48 -263 147q-116 100 -187 247q-71 148 -71 347q0 173 64 332q65 161 183 287q115 123 285 198q172 76 369 76q171 0 300 -56q128 -56 208 -146q80 -89 121 -207t41 -244q0 -244 -134 -413
q-133 -168 -339 -168q-86 0 -144 42t-66 120l-7 2q-47 -72 -109 -116t-125 -44q-39 0 -83 14q-45 14 -76 44q-32 32 -52 86t-20 131q0 70 34 163q33 91 90 173q56 81 148 144q89 61 195 61q55 0 99 -32t54 -92h6l43 112h149l-189 -538q-9 -26 -15 -58q-5 -28 -5 -51
q0 -51 26 -75q24 -23 67 -23q156 0 259 145q104 146 104 384q0 119 -37 218q-39 104 -113 178q-74 77 -184 120q-112 44 -254 44q-135 0 -265 -53q-128 -52 -235 -156q-102 -99 -167 -249q-64 -147 -64 -337q0 -180 50 -319q49 -136 141 -230q89 -90 210 -135t262 -45
q160 0 283 43q126 44 223 125zM1182 742q-13 80 -45 118q-31 37 -91 37q-64 0 -118 -51q-49 -47 -90 -123q-39 -73 -60 -161q-22 -91 -22 -162q0 -87 20 -130q21 -46 68 -46q67 0 122 47q54 46 101 133z" />
    <glyph glyph-name="A" unicode="A" horiz-adv-x="1374" 
d="M1421 0h-591v71q77 4 130 20q51 15 51 37q0 4 -2 22q-1 12 -6 23l-118 318h-497q-27 -68 -46 -122q-13 -37 -31 -96q-14 -44 -18 -70q-5 -30 -5 -44q0 -39 63 -62q60 -21 142 -26v-71h-534v71q23 1 65 11q37 9 64 26q40 27 62 56t43 82q124 311 236 600q44 114 121 311.5
t109 281.5h80l473 -1224q15 -40 34 -63q21 -26 53 -47q24 -14 60 -23q41 -10 62 -11v-71zM849 580l-215 550l-211 -550h426z" />
    <glyph glyph-name="B" unicode="B" horiz-adv-x="1339" 
d="M1104 661q63 -43 103 -110q41 -68 41 -165q0 -99 -43 -172q-44 -74 -112 -120q-67 -46 -151 -70t-175 -24h-672v71l70 9q47 6 66 15q31 13 44 37q13 23 13 61v1020q0 35 -12 60q-12 26 -45 42q-32 16 -67 23q-45 9 -62 10v71h655q76 0 145 -15t133 -53q60 -35 97 -95
q38 -61 38 -146q0 -76 -27 -134t-76 -100q-49 -43 -105 -68q-60 -27 -129 -42v-9q65 -8 137 -31q78 -25 134 -65zM863 875q35 41 51 94q15 51 15 121q0 119 -64 184q-64 66 -202 66q-17 0 -81 -2q-14 0 -41.5 -0.5t-39.5 -1.5v-545h127q82 0 140 21q59 21 95 63zM1001 422
q0 125 -85 207q-84 81 -241 81q-50 0 -108 -2q-11 0 -34.5 -0.5t-31.5 -1.5v-500q0 -64 51 -95q52 -32 142 -32q148 0 228 87q79 86 79 256z" />
    <glyph glyph-name="C" unicode="C" horiz-adv-x="1315" 
d="M723 -33q-125 0 -243 50q-117 49 -207 144q-91 97 -142 229q-53 136 -53 306q0 171 52 308q53 139 144 239q92 100 215 153q125 54 265 54q103 0 190 -26q82 -25 162 -73l41 68h80l9 -506h-82q-17 75 -48 161q-31 85 -75 146q-47 67 -114 106q-66 39 -151 39
q-97 0 -180 -43q-84 -43 -145 -127q-58 -80 -91 -206q-33 -125 -33 -279q0 -134 35 -250q35 -115 98 -199t152 -133q87 -48 195 -48q80 0 149 26q70 27 118 67q50 44 88 100q38 57 62 122l75 -36q-85 -211 -228 -301q-144 -91 -338 -91z" />
    <glyph glyph-name="D" unicode="D" horiz-adv-x="1534" 
d="M1457 701q0 -180 -68 -314q-67 -132 -177 -218q-108 -84 -247 -127q-136 -42 -283 -42h-588v71q37 0 76 5q47 6 61 13q29 13 43 39t14 61v1024q0 34 -12 61t-45 43q-30 14 -67 22q-36 7 -62 9v71h620q128 0 252 -39q123 -39 216 -107q126 -89 196 -233q71 -145 71 -339z
M1212 702q0 141 -38 258t-111 202q-69 83 -169 129q-102 47 -224 47q-24 0 -92 -2q-13 0 -40 -0.5t-37 -1.5v-1091q0 -91 53 -126t163 -35q127 0 222 45t154 125q63 87 91 194q28 109 28 256z" />
    <glyph glyph-name="E" unicode="E" horiz-adv-x="1338" 
d="M1291 418l-27 -418h-1178v71q10 0 80 9q51 6 65 13q33 16 45 39q12 24 12 61v1020q0 32 -11 59q-10 24 -46 41q-22 11 -73 23q-45 10 -72 12v71h1098v-342h-75q-18 72 -87 161q-67 87 -126 94q-32 5 -74 6q-58 2 -98 2h-223v-564h160q79 0 113 14q35 15 62 49
q23 29 38 77q16 50 20 92h75v-555h-75q-5 49 -22 101q-19 57 -36 78q-32 39 -70 51q-39 12 -105 12h-160v-426q0 -63 9 -101q9 -36 35 -56q23 -18 71 -24q45 -6 128 -6h87q58 0 91 4q45 5 78 14q41 11 58 29q44 45 96 145t65 144h72z" />
    <glyph glyph-name="F" unicode="F" horiz-adv-x="1227" 
d="M1199 1064h-75q-20 77 -88 169q-66 90 -127 99q-32 5 -73 6q-56 2 -97 2h-238v-570h163q72 0 115 16q41 15 70 47q21 24 37 69q16 46 21 99h76v-557h-76q-3 45 -21 100q-18 57 -37 81q-30 37 -75 51q-43 13 -110 13h-163v-489q0 -34 13 -59q14 -26 46 -42q11 -6 65 -17
q43 -9 76 -11v-71h-615v71q7 0 80 7q53 5 65 11q29 13 43 39t14 61v1024q0 32 -11 59q-10 24 -46 41q-22 11 -73 23q-45 10 -72 12v71h1113v-355z" />
    <glyph glyph-name="G" unicode="G" horiz-adv-x="1485" 
d="M1471 567q-27 -3 -65 -9q-36 -5 -65 -19q-31 -15 -43 -43q-12 -27 -12 -64v-110q0 -106 2 -162q2 -42 3 -69q-136 -61 -265 -92q-134 -32 -259 -32q-136 0 -262 51t-220 145q-96 96 -151 231q-56 138 -56 304q0 162 54 300q55 141 151 241q93 98 227 155q133 56 281 56
q119 0 209 -29q87 -28 157 -70l41 68h80l9 -496h-82q-21 83 -52 161q-33 83 -80 143q-51 65 -119 101q-70 37 -169 37q-108 0 -191 -43q-84 -43 -146 -130q-61 -81 -94 -207q-33 -124 -33 -277q0 -134 33 -254q33 -121 94 -207q62 -89 155 -140t211 -51q88 0 160 27
q74 28 103 57q9 63 9 105v90v78q0 42 -12 75q-12 32 -47 47q-35 16 -89 23q-57 7 -89 9v73h622v-73z" />
    <glyph glyph-name="H" unicode="H" horiz-adv-x="1669" 
d="M1567 0h-589v71q27 2 70 6q46 5 62 12q30 12 44 37t14 63v505h-667v-494q0 -37 11 -59q12 -24 46 -42q16 -9 60 -18q40 -8 69 -10v-71h-589v71q27 2 70 6q46 5 62 12q30 12 44 37t14 63v1024q0 33 -13 59t-45 41q-23 11 -66 23q-39 11 -66 12v71h589v-71q-29 -2 -69 -9
t-60 -15q-34 -12 -46 -40q-11 -26 -11 -61v-440h667v430q0 33 -13 59t-45 41q-23 11 -66 23q-39 11 -66 12v71h589v-71q-29 -2 -69 -9t-60 -15q-34 -12 -46 -40q-11 -26 -11 -61v-1023q0 -37 11 -59q12 -24 46 -42q16 -9 60 -18q40 -8 69 -10v-71z" />
    <glyph glyph-name="I" unicode="I" horiz-adv-x="798" 
d="M718 0h-639v71q27 1 78 6t72 12q34 14 48 35q15 22 15 63v1028q0 34 -11 59q-9 22 -52 39q-33 13 -75 23q-45 10 -75 12v71h639v-71q-24 -1 -74 -8q-46 -6 -75 -16q-37 -12 -51 -39q-13 -26 -13 -60v-1027q0 -32 15 -58q16 -26 49 -41q24 -9 69 -17q52 -10 80 -11v-71z
" />
    <glyph glyph-name="J" unicode="J" horiz-adv-x="1060" 
d="M1006 1348q-22 -1 -70 -8q-43 -6 -70 -16q-34 -12 -46 -40t-12 -61v-841q0 -69 -26 -140q-27 -74 -78 -132q-60 -69 -140 -106q-82 -38 -187 -38q-162 0 -265 92q-101 91 -101 246q0 67 35 120t102 53q60 0 96 -33q37 -34 37 -89q0 -34 -13 -64q-15 -36 -29 -57
q-8 -12 -34 -54q-20 -32 -27 -56q21 -32 66 -58q44 -25 119 -25q73 0 119 33q47 33 70 90q23 54 32 128q9 77 9 170v751q0 37 -11 59q-11 23 -48 41q-30 16 -78 25q-43 8 -76 10v71h626v-71z" />
    <glyph glyph-name="K" unicode="K" horiz-adv-x="1422" 
d="M1475 0h-398q-122 188 -255 354q-141 176 -295 340h-26v-494q0 -31 13 -59q12 -25 45 -42q13 -6 59 -17q38 -9 73 -11v-71h-589v71q25 2 67 6q44 5 62 12q29 13 43 39t14 61v1024q0 33 -12 59q-12 25 -45 41q-23 12 -64 23q-38 11 -65 12v71h589v-71q-28 -1 -70 -9
q-43 -8 -62 -15q-34 -12 -46 -40t-12 -61v-490h20q90 77 177 159q94 89 158 164q80 92 116 146t36 96q0 15 -18 24q-21 10 -43 16q-32 7 -50 8q-6 0 -18.5 0.5t-17.5 1.5v71h532v-71q-6 0 -13 -1q-4 -1 -11.5 -1.5t-11.5 -0.5q-20 -2 -28 -4l-17.5 -3.5t-18.5 -3.5
q-34 -7 -73 -26q-37 -18 -61 -43q-171 -193 -215 -242q-112 -125 -222 -228q176 -200 252 -296q129 -162 211 -265q43 -53 86 -86q44 -33 74 -49q22 -12 65 -20q31 -6 65 -8v-71z" />
    <glyph glyph-name="L" unicode="L" horiz-adv-x="1236" 
d="M1237 422l-30 -422h-1109v71q7 0 17 1t26 3t27 3q42 4 63 13q30 14 43 38q14 26 14 64v1016q0 35 -12 60q-12 26 -45 42q-18 10 -65 23q-44 13 -68 14v71h599v-71q-31 -2 -73 -10q-47 -9 -64 -16q-34 -12 -46 -41q-13 -31 -13 -62v-953q0 -60 7 -102q6 -38 30 -57
q21 -17 68 -23q45 -6 128 -6q23 0 77 2q36 1 76 8q38 7 65 16q29 10 43 27q43 49 95 139q56 97 76 152h71z" />
    <glyph glyph-name="M" unicode="M" horiz-adv-x="1899" 
d="M1806 0h-627v71q39 2 87 7q53 6 74 17q31 19 46 43q14 22 14 62v1032h-15l-484 -1209h-50l-461 1234h-13v-847q0 -122 15 -187q14 -62 48 -92q22 -20 91 -40q64 -18 90 -20v-71h-573v71q44 4 94 15t77 33q35 29 48 86q13 56 13 194v726q0 63 -15 103t-43 65
q-31 26 -76 40q-45 13 -89 15v71h484l406 -1064l347 890q17 43 32 103q14 54 15 71h463v-71q-28 -2 -72 -9t-63 -15q-34 -12 -46 -40q-12 -29 -12 -61v-1023q0 -35 12 -59t46 -42q17 -10 64 -19q36 -7 73 -9v-71z" />
    <glyph glyph-name="N" unicode="N" horiz-adv-x="1571" 
d="M1554 1348q-30 -2 -86 -16q-58 -15 -83 -31q-37 -26 -49 -96q-12 -71 -12 -180v-1039h-87l-860 1161v-732q0 -123 15 -189q14 -64 48 -94q21 -21 95 -41q67 -18 95 -20v-71h-582v71q29 2 91 19t80 32q34 28 48 86q13 55 13 196v699q0 47 -16 92q-16 46 -43 71
q-34 32 -97 56q-63 25 -100 26v71h405l798 -1082v675q0 126 -16 190q-17 67 -46 89q-28 19 -91 37q-65 19 -97 20v71h577v-71z" />
    <glyph glyph-name="O" unicode="O" horiz-adv-x="1524" 
d="M1244 1251q94 -97 147 -237q53 -139 53 -306q0 -169 -54 -307q-54 -137 -150 -235q-92 -95 -216 -148q-122 -52 -262 -52q-147 0 -274 56q-125 55 -215 154q-90 97 -141 236q-52 141 -52 296q0 173 54 308q54 136 149 235q95 97 219 150q123 52 260 52q140 0 266 -53
q124 -52 216 -149zM1095 245q56 92 81 206q26 118 26 257q0 149 -28 268q-29 123 -84 208q-54 83 -138 132q-82 48 -190 48q-121 0 -204 -55q-85 -56 -137 -147q-52 -93 -75 -206q-24 -118 -24 -248q0 -142 26 -260q25 -114 82 -206q54 -89 136 -138t196 -49q107 0 193 50
t140 140z" />
    <glyph glyph-name="P" unicode="P" horiz-adv-x="1249" 
d="M1184 1069q0 -111 -44 -197t-120 -141q-79 -58 -167 -82q-93 -26 -193 -26h-159v-430q0 -36 11 -61q12 -28 48 -41q16 -7 64 -13q39 -5 83 -7v-71h-609v71q7 0 17 1t26 3t27 3q42 4 63 13q30 14 43 38q14 26 14 64v1024q0 36 -10 63q-11 29 -47 42q-30 11 -75 18
q-42 7 -65 8v71h648q199 0 321 -95q124 -97 124 -255zM880 827q34 48 45 99q11 53 11 93q0 55 -14 116t-46 103q-35 48 -92 73q-58 26 -142 26h-141v-627h102q105 0 175 34q67 33 102 83z" />
    <glyph glyph-name="Q" unicode="Q" horiz-adv-x="1524" 
d="M1244 1251q94 -97 147 -237q53 -139 53 -306q0 -132 -35 -248q-35 -114 -99 -204q-62 -86 -145 -150q-81 -62 -188 -101q1 -109 79 -197q77 -88 166 -88q82 0 125 6q61 8 71 10v-79q-27 -8 -112 -27q-68 -15 -188 -15q-68 0 -131 19t-116 63t-87 109q-33 64 -44 162
q-142 4 -265 62t-209 154q-87 97 -137 232q-49 132 -49 292q0 173 54 308q54 136 149 235q95 97 219 150q123 52 260 52q140 0 266 -53q124 -52 216 -149zM1095 245q56 92 81 206q26 118 26 257q0 149 -28 268q-29 123 -84 208q-54 83 -138 132q-82 48 -190 48
q-121 0 -204 -55q-85 -56 -137 -147q-52 -93 -75 -206q-24 -118 -24 -248q0 -142 26 -260q25 -114 82 -206q54 -89 136 -138t196 -49q107 0 193 50t140 140z" />
    <glyph glyph-name="R" unicode="R" horiz-adv-x="1437" 
d="M1480 0h-382q-115 180 -230 344q-95 135 -222 299h-145v-450q0 -33 11 -61q11 -27 47 -41q16 -7 63 -13q39 -5 76 -7v-71h-600v71q7 0 17 1t26 3t27 3q42 4 63 13q30 14 43 38q14 26 14 64v1026q0 36 -10 62q-11 28 -47 41q-24 8 -65 16q-48 9 -68 10v71h655
q85 0 169 -19q77 -17 143 -59q61 -41 99 -105q37 -64 37 -155q0 -83 -25 -145q-26 -64 -74 -109q-45 -43 -108 -75q-59 -29 -139 -53q138 -184 175 -234q9 -13 170 -231q42 -58 80 -88q39 -31 70 -47q22 -12 65 -20q31 -6 65 -8v-71zM954 1058q0 128 -74 204t-209 76h-170
v-609h131q138 0 230 89t92 240z" />
    <glyph glyph-name="S" unicode="S" horiz-adv-x="1149" 
d="M981 651q47 -52 67 -109q21 -60 21 -139q0 -189 -139 -310q-140 -122 -345 -122q-99 0 -190 29q-96 30 -164 72l-43 -73h-80l-14 486h81q25 -90 59 -163t88 -135q54 -60 122 -94q70 -35 161 -35q70 0 121 18q52 18 83 51q33 34 47 77q16 48 16 103q0 85 -48 159
q-48 73 -143 111q-55 22 -149 57q-81 31 -145 60q-120 54 -187 142q-66 87 -66 228q0 80 33 151q33 70 94 125q58 52 137 82q77 29 165 29q97 0 175 -30q79 -30 142 -70l41 68h80l8 -471h-81q-22 77 -50 155q-27 73 -71 134q-43 59 -105 93q-61 34 -152 34q-95 0 -162 -61
t-67 -149q0 -93 43 -152q45 -62 125 -100q77 -36 143 -60q59 -21 137 -55q55 -24 115 -59q57 -34 97 -77z" />
    <glyph glyph-name="T" unicode="T" horiz-adv-x="1267" 
d="M1251 1034h-69q-10 41 -32 86q-23 47 -53 93q-32 49 -65 81q-36 34 -69 39q-31 5 -78 6q-62 2 -87 2h-58v-1135q0 -32 14 -60t49 -43q16 -6 75 -19q53 -11 90 -13v-71h-670v71q20 1 86 8q56 6 79 15q34 14 49 38t15 65v1144h-58q-46 0 -77 -1q-32 -1 -88 -7
q-34 -5 -68 -39q-36 -36 -66 -81q-33 -49 -53 -95q-24 -54 -32 -84h-70v385h1236v-385z" />
    <glyph glyph-name="U" unicode="U" horiz-adv-x="1549" 
d="M1533 1348q-28 -1 -82 -12q-53 -10 -88 -33q-33 -22 -47 -95q-13 -69 -13 -176v-617q0 -119 -49 -205q-50 -88 -129 -143q-77 -52 -167 -77q-87 -24 -167 -24q-124 0 -228 34q-101 33 -168 90q-66 56 -101 130q-34 72 -34 154v839q0 35 -12 59t-46 43q-28 15 -64 23
t-64 10v71h591v-71q-29 -2 -71 -9q-43 -8 -62 -15q-34 -12 -46 -40q-11 -26 -11 -61v-784q0 -51 13 -119q12 -64 49 -117q39 -56 106 -90q68 -35 184 -35q109 0 185 35q72 33 117 92q42 56 58 113q17 60 17 119v582q0 113 -16 181q-17 71 -47 93q-34 25 -95 39
q-65 15 -93 16v71h580v-71z" />
    <glyph glyph-name="V" unicode="V" horiz-adv-x="1365" 
d="M1407 1348q-25 -2 -63 -12q-38 -11 -61 -25q-34 -21 -55 -54q-19 -31 -40 -78q-68 -159 -201 -495q-97 -244 -276 -702h-83q-53 143 -147.5 396t-130.5 350q-120 322 -182 485q-11 29 -32 55q-17 21 -53 44q-28 17 -60 26q-31 8 -61 10v71h587v-71q-76 -5 -127 -15
q-51 -11 -51 -39q0 -13 4 -26q1 -4 3.5 -12.5t3.5 -11.5q32 -83 120 -320q28 -76 107.5 -287t128.5 -343q63 153 175 437q95 241 133 346q31 86 38 126q6 35 6 57q0 24 -20 38q-25 18 -55 27q-33 11 -67 15q-46 6 -69 8v71h528v-71z" />
    <glyph glyph-name="W" unicode="W" horiz-adv-x="1998" 
d="M2028 1348q-25 -1 -58 -12q-32 -10 -61 -27q-37 -24 -57 -51q-20 -28 -37 -79q-26 -84 -82 -267t-83 -272q-129 -422 -203 -658h-92l-358 1092l-373 -1092h-88q-35 124 -104 368t-101 358q-42 148 -90 320t-52 185q-9 31 -27 55q-20 26 -47 44q-26 17 -59 26
q-31 8 -60 10v71h579v-71q-74 -4 -129 -15q-54 -11 -54 -37q0 -10 3 -26q1 -3 2.5 -13t2.5 -14q15 -60 82 -291q21 -72 79.5 -277.5t93.5 -328.5l354 1053h98l357 -1076q60 206 124 433q39 138 86 318q24 92 30 128q6 34 6 58q0 35 -46 57q-49 24 -151 31v71h515v-71z" />
    <glyph glyph-name="X" unicode="X" horiz-adv-x="1455" 
d="M1457 0h-664v71q82 1 133 15q50 13 50 42q0 14 -23 62q-21 43 -59 105q-83 132 -95 151q-47 74 -109 165q-79 -103 -200 -279q-112 -163 -112 -193q0 -34 30 -49q29 -14 135 -19v-71h-530v71q33 2 67 7q42 6 66 19q53 29 84 61q33 35 63 76q78 108 164 220
q111 145 177 239q-35 51 -148 215q-34 49 -100 145.5t-92 134.5q-43 63 -68 89q-24 25 -65 45q-29 13 -67 18q-48 7 -67 8v71h657v-71q-54 -1 -120 -14q-63 -12 -63 -39q0 -20 25 -67q27 -51 59 -101q52 -84 78 -124q52 -81 105 -157q112 153 195 276q82 122 82 160
q0 32 -37 47q-36 14 -127 19v71h529v-71q-20 -1 -66 -8q-40 -6 -67 -18q-51 -25 -77 -54q-26 -28 -69 -84q-64 -83 -147 -194q-107 -143 -163 -220q114 -164 179 -259q30 -44 93 -137t95 -140q35 -50 71 -86q41 -41 65 -55q25 -14 64 -17q64 -5 69 -5v-71z" />
    <glyph glyph-name="Y" unicode="Y" horiz-adv-x="1260" 
d="M1314 1348q-14 -1 -54 -14q-36 -11 -53 -24q-42 -26 -53 -37q-16 -16 -54 -68q-75 -105 -144 -223q-57 -96 -165 -287q-37 -63 -49 -103q-12 -39 -12 -113v-271q0 -37 14 -62q14 -26 50 -43q17 -6 75 -19q51 -11 87 -13v-71h-664v71q38 2 84 7q56 6 78 15q36 15 50 41
q13 25 13 64v345q0 18 -19 59q-12 27 -47 94q-76 146 -133 251q-89 163 -127 231q-33 57 -59 86t-58 51q-25 15 -58 23q-39 9 -60 10v71h605v-71q-100 -1 -144 -14q-42 -12 -42 -34q0 -6 6 -21q4 -11 17 -38q2 -4 13 -25t18 -34q5 -10 11 -21t12.5 -24t10.5 -20
q47 -89 96 -177q15 -27 57.5 -104t70.5 -127q135 218 239 395q83 142 83 169q0 23 -17 37q-18 15 -45 22q-26 7 -63 10q-34 3 -63 6v71h493v-71z" />
    <glyph glyph-name="Z" unicode="Z" horiz-adv-x="1232" 
d="M1214 443l-47 -443h-1140v35l893 1305h-327q-43 0 -95 -2q-36 -1 -71 -8q-67 -14 -149 -109q-81 -95 -124 -203h-70l43 401h1063v-35l-893 -1305h337q85 0 181 12t125 41q66 63 121 152q57 92 83 159h70z" />
    <glyph glyph-name="bracketleft" unicode="[" horiz-adv-x="768" 
d="M701 -310h-533v1829h533v-91h-355v-1646h355v-92z" />
    <glyph glyph-name="backslash" unicode="\" horiz-adv-x="960" 
d="M911 -424h-130l-691 1947h132z" />
    <glyph glyph-name="bracketright" unicode="]" horiz-adv-x="768" 
d="M600 -310h-533v92h355v1646h-355v91h533v-1829z" />
    <glyph glyph-name="asciicircum" unicode="^" 
d="M1126 796h-145l-321 524l-324 -524h-145l412 660h113z" />
    <glyph glyph-name="underscore" unicode="_" 
d="M1322 -282h-1327v101h1327v-101z" />
    <glyph glyph-name="grave" unicode="`" horiz-adv-x="1024" 
d="M739 1142l-38 -32q-114 90 -184 144q-81 62 -120 93q-37 31 -53 52t-16 61q0 29 23 54q23 24 59 24q38 0 67 -18t60 -70q51 -82 80 -126q57 -86 122 -182z" />
    <glyph glyph-name="a" unicode="a" horiz-adv-x="1032" 
d="M1006 18q-65 -23 -82 -28q-34 -10 -81 -10q-79 0 -125 36q-45 35 -59 107h-6q-66 -73 -139 -110q-76 -38 -180 -38q-109 0 -182 68q-72 68 -72 178q0 58 16 102q16 45 48 81q26 30 66 54q37 22 77 37q45 17 183 63q135 46 185 72v99q0 19 -5 50q-6 37 -24 70
q-20 38 -56 65t-104 27q-47 0 -86 -15q-36 -14 -55 -33q0 -20 9 -59q10 -43 10 -72q0 -35 -32 -64t-87 -29q-50 0 -73 35q-24 36 -24 80q0 47 32 88q33 43 85 75q42 27 109 47q66 20 125 20q84 0 147 -12t113 -49q49 -36 77 -101q27 -63 27 -163q0 -142 -3 -253t-3 -242
q0 -40 13 -62q14 -22 42 -39q14 -8 48 -10q22 -1 66 -1v-64zM657 546q-87 -26 -149 -49t-119 -60q-51 -36 -79 -81q-29 -47 -29 -110q0 -83 43 -122q44 -39 111 -39q70 0 125 35q53 34 91 81z" />
    <glyph glyph-name="b" unicode="b" horiz-adv-x="1147" 
d="M1073 494q0 -221 -140 -373q-139 -151 -325 -151q-84 0 -160 25q-80 26 -147 67l-74 -115l-62 14q6 95 7 178q2 138 2 201v976q0 31 -16 68q-15 34 -39 49q-19 13 -63 19q-64 9 -72 9v64l362 23l14 -15v-650l7 -2q61 66 135 99t145 33q183 0 304 -144q122 -145 122 -375z
M864 487q0 77 -16 151q-17 80 -50 134q-35 59 -89 94q-55 36 -132 36q-69 0 -123 -28q-51 -26 -94 -74v-574q6 -25 24 -56q20 -36 47 -61q26 -25 68 -45q37 -18 93 -18q122 0 197 118t75 323z" />
    <glyph glyph-name="c" unicode="c" horiz-adv-x="930" 
d="M528 -26q-214 0 -335 142t-121 381q0 108 32 195q33 90 95 164q58 70 148 114t194 44q143 0 236 -70q91 -69 91 -189q0 -50 -24 -89q-23 -38 -79 -38q-58 0 -91 30t-33 67q0 45 12 93q13 51 14 69q-18 31 -53 41q-38 11 -77 11q-47 0 -91 -21q-47 -23 -85 -75
q-37 -49 -60 -135q-23 -87 -23 -203q0 -187 82 -303q83 -118 217 -118q96 0 163 47q65 46 121 141l64 -42q-66 -118 -174 -187t-223 -69z" />
    <glyph glyph-name="d" unicode="d" horiz-adv-x="1176" 
d="M1152 18l-344 -22l-15 14v92l-8 2q-51 -57 -129 -95q-75 -37 -157 -37q-84 0 -163 38q-77 37 -136 105q-61 71 -94 166q-34 96 -34 214q0 108 37 203q37 96 102 168q61 67 149 107q87 40 181 40q73 0 135 -17q68 -19 115 -45v343q0 40 -14 76q-14 35 -39 53
q-26 18 -76 27q-44 8 -102 13v62l403 23l15 -15v-1330q0 -34 14 -59q15 -26 39 -42q20 -12 55 -15q21 -2 66 -4v-65zM791 191v577q-7 25 -26 56q-17 29 -45 55q-26 23 -68 41q-40 17 -91 17q-61 0 -111 -31t-89 -89q-38 -56 -59 -143t-21 -191q0 -86 16 -153q16 -68 54 -127
q34 -55 89 -90q53 -34 130 -34q79 0 132 35t89 77z" />
    <glyph glyph-name="e" unicode="e" horiz-adv-x="990" 
d="M948 232q-60 -116 -166 -188q-103 -70 -239 -70q-119 0 -209 42q-88 41 -147 114q-59 72 -87 168q-28 94 -28 203q0 96 30 189q29 89 90 166q56 70 142 114q85 44 189 44q110 0 185 -34q77 -35 125 -93q47 -55 69 -132q22 -75 22 -165v-66h-653q0 -92 19 -176
q18 -80 58 -139q38 -58 102 -91q65 -34 150 -34q90 0 154 42q65 42 124 149zM727 608q0 56 -9 120q-8 60 -31 107t-63 75q-41 29 -103 29q-106 0 -175 -87t-75 -244h456z" />
    <glyph glyph-name="f" unicode="f" horiz-adv-x="666" 
d="M806 1429q0 -44 -24 -76q-24 -31 -73 -31q-32 0 -55 13q-25 14 -43 35q-24 28 -37 50q-15 25 -29 45q-67 -3 -103 -93q-37 -92 -37 -289v-101h254v-96h-254v-708q0 -35 13 -57t43 -33q20 -7 64 -14q46 -7 69 -8v-66h-520v66q7 0 23.5 1.5t24.5 2.5q22 1 42 8q28 9 42 32
q13 22 13 58v718h-195v96h195v63q0 226 117 365t291 139q88 0 134 -35q45 -35 45 -85z" />
    <glyph glyph-name="g" unicode="g" horiz-adv-x="1043" 
d="M917 102q40 -37 63 -86t23 -119q0 -71 -31 -133q-31 -63 -94 -109q-70 -48 -160 -73q-95 -26 -230 -26q-224 0 -335 66t-111 191q0 102 80 161q81 60 204 64v14q-36 11 -62 22q-32 14 -55 32q-25 21 -42 50q-16 28 -16 70q0 54 37 98t114 76v15q-97 46 -149 115
q-53 71 -53 164q0 141 104 230q105 90 268 90q45 0 90 -9q35 -7 90 -23h344v-96h-232v-6q37 -43 55 -95q18 -53 18 -102q0 -130 -105 -220t-246 -90h-121q-21 -7 -48 -29q-25 -21 -25 -57q0 -37 21 -57q20 -18 51 -26q33 -9 68 -10q52 -2 79 -3q46 -2 121 -6q76 -5 108 -6
q43 -1 92 -22q46 -19 85 -55zM647 687q0 119 -47 187q-48 69 -134 69q-48 0 -80 -19q-34 -20 -55 -56q-20 -34 -29 -80q-8 -41 -8 -95q0 -111 48 -181t126 -70q85 0 132 70t47 175zM839 -140q0 55 -26 92q-25 35 -79 49q-29 5 -115 9q-97 5 -202 5q-107 -21 -153 -71
q-46 -51 -46 -127q0 -35 15 -67q16 -33 52 -59q36 -27 94 -43q57 -16 144 -16q148 0 231 56q85 58 85 172z" />
    <glyph glyph-name="h" unicode="h" horiz-adv-x="1192" 
d="M1143 0h-484v66q5 0 22.5 1.5t28.5 2.5q26 1 46 8q28 9 42 32q13 22 13 58v507q0 106 -49 162q-50 57 -121 57q-53 0 -97 -16q-42 -16 -79 -41q-35 -26 -52 -50q-13 -18 -28 -42v-567q0 -34 13 -56t42 -34q23 -11 46 -15q32 -6 51 -7v-66h-484v66q32 2 48 4q22 3 42 8
q28 9 42 32t14 58v1148q0 34 -15 68t-41 51q-17 13 -63 19q-38 5 -74 7v64l365 23l14 -15v-688h4q42 42 60 59q22 21 71 53q34 22 90 40q49 16 115 16q133 0 203 -83q71 -85 71 -241v-513q0 -33 13 -56q13 -22 41 -34q25 -10 41 -14q18 -4 49 -6v-66z" />
    <glyph glyph-name="i" unicode="i" horiz-adv-x="600" 
d="M551 0h-477v66q7 0 23.5 1.5t24.5 2.5q22 1 42 8q28 9 42 32q13 22 13 58v609q0 32 -15 59q-14 26 -40 44q-17 11 -55 20q-39 10 -66 11v65l348 22l14 -14v-804q0 -36 13 -58q14 -23 43 -34q15 -6 43 -14q23 -7 47 -8v-66zM425 1387q0 -58 -37 -99q-38 -43 -93 -43
q-51 0 -89 41q-37 40 -37 92q0 56 37 96q38 41 89 41q57 0 93 -39q37 -40 37 -89z" />
    <glyph glyph-name="j" unicode="j" horiz-adv-x="598" 
d="M431 60q0 -108 -32 -206q-31 -96 -85 -160q-56 -66 -128 -102t-158 -36q-89 0 -134 36t-45 83q0 42 24 75t70 33q32 0 55 -13q25 -14 42 -34q15 -17 32 -44q3 -5 14.5 -23.5t17.5 -28.5q75 0 108 92t33 295v742q0 31 -15 61q-15 29 -41 48q-18 12 -77 22q-67 12 -91 14
v62l396 22l14 -14v-924zM446 1388q0 -57 -38 -100q-38 -42 -92 -42q-51 0 -88 40q-38 41 -38 93q0 55 38 96t88 41q59 0 94 -38q36 -39 36 -90z" />
    <glyph glyph-name="k" unicode="k" horiz-adv-x="1097" 
d="M1117 0h-298q-93 134 -167 242q-88 128 -185 251l-82 -77v-234q0 -37 13 -60t42 -34q24 -11 46 -15q29 -6 51 -7v-66h-484v66q32 2 48 4q22 3 42 8q28 9 42 32t14 58v1146q0 37 -15 70q-14 32 -41 49q-21 17 -65 21q-68 7 -72 7v64l365 23l14 -15v-1043q25 25 81.5 81
t87.5 87q104 104 152 159q15 18 18 23q9 15 9 24q0 27 -43 40q-44 14 -84 18v64h434v-62q-87 -26 -148 -62q-63 -36 -99 -68q-24 -20 -68 -65q-39 -40 -123 -118q75 -92 184 -242q28 -39 150 -204q43 -58 79 -77q33 -17 102 -22v-66z" />
    <glyph glyph-name="l" unicode="l" horiz-adv-x="586" 
d="M534 0h-481v66q35 2 49 4q24 3 43 8q28 9 42 32t14 58v1142q0 36 -15 68q-14 30 -41 49q-17 11 -66 22q-48 10 -77 12v64l371 23l14 -15v-1353q0 -36 13 -58t42 -34q22 -10 44 -15q27 -6 48 -7v-66z" />
    <glyph glyph-name="m" unicode="m" horiz-adv-x="1804" 
d="M1761 0h-481v66q7 0 22.5 1.5t23.5 2.5q22 1 42 8q28 9 42 32q13 22 13 58v509q0 105 -47 161t-119 56q-49 0 -92 -15t-79 -42q-30 -24 -48 -47q-16 -21 -30 -43v-569q0 -36 12 -58t41 -34q25 -10 41 -14q18 -4 49 -6v-66h-471v66q8 1 22.5 2.5t21.5 1.5q20 1 40 8
q28 9 42 32q13 22 13 58v509q0 105 -47 161t-119 56q-46 0 -92 -16q-43 -15 -79 -42q-30 -24 -49 -50q-25 -34 -30 -41v-565q0 -34 14 -57t42 -35q21 -11 43 -15q30 -6 49 -7v-66h-479v66q7 0 23.5 1.5t24.5 2.5q22 1 42 8q28 9 42 32q13 22 13 58v613q0 31 -15 57
q-16 27 -40 44q-22 13 -47 20q-29 8 -58 9v65l330 22l14 -14v-141h7q13 13 61 59q35 34 67 55q32 23 88 40q51 16 113 16q96 0 165 -51t99 -125q48 46 63 61q25 25 73 57q37 25 89 42q49 16 115 16q125 0 198 -82t73 -252v-501q0 -36 12 -58t41 -34q25 -10 45 -14
q22 -4 51 -6v-66z" />
    <glyph glyph-name="n" unicode="n" horiz-adv-x="1210" 
d="M1161 0h-483v66q6 0 23 1.5t27 2.5q26 1 46 8q28 9 42 32q13 22 13 58v507q0 106 -49 162q-50 57 -121 57q-55 0 -97 -16t-78 -41q-33 -22 -52 -49q-23 -31 -29 -43v-567q0 -33 14 -56q13 -22 42 -34q21 -10 45 -15q31 -6 51 -7v-66h-483v66q7 0 23.5 1.5t24.5 2.5
q22 1 42 8q28 9 42 32q13 22 13 58v609q0 35 -15 63t-40 46q-20 12 -45 18q-23 5 -56 7v65l328 22l14 -14v-139h5q24 24 60 57q39 35 68 55q36 23 88 40q49 16 115 16q142 0 211 -89q68 -87 68 -235v-513q0 -35 12 -56q13 -22 41 -34q20 -9 41 -14q18 -5 49 -6v-66z" />
    <glyph glyph-name="o" unicode="o" horiz-adv-x="1104" 
d="M1033 503q0 -104 -33 -205q-33 -100 -94 -170q-70 -81 -160 -119q-92 -39 -204 -39q-94 0 -179 36t-151 103q-66 69 -104 163t-38 217q0 232 134 378q135 147 353 147q206 0 341 -140q135 -139 135 -371zM826 501q0 75 -15 159q-15 82 -45 141q-32 61 -84 99
q-53 38 -127 38q-76 0 -131 -38q-54 -38 -89 -104q-32 -62 -45 -139q-13 -75 -13 -151q0 -97 15 -178q15 -79 50 -145q35 -65 86 -101t127 -36q125 0 198 121t73 334z" />
    <glyph glyph-name="p" unicode="p" horiz-adv-x="1170" 
d="M973 869q58 -70 91 -163t33 -211q0 -117 -39 -213q-40 -100 -103 -165q-67 -69 -149 -106q-81 -37 -174 -37q-88 0 -146 20q-56 19 -93 47h-8v-296q0 -35 14 -60q14 -24 43 -35q25 -9 68 -18q35 -7 74 -9v-67h-551v67q23 1 60 5q32 3 52 10q31 11 42 35q12 25 12 59v1049
q0 29 -15 58t-39 45q-18 12 -50 18q-42 8 -62 9v65l336 22l14 -12v-111l8 -2q52 59 129 100q76 40 153 40q93 0 169 -39q75 -38 131 -105zM810 160q39 59 59 144q19 80 19 183q0 77 -16 151q-17 80 -50 134q-35 59 -89 94q-55 36 -132 36q-75 0 -126 -32q-53 -33 -90 -78
v-583q10 -30 29 -56q23 -31 46 -50q33 -27 67 -41q36 -15 88 -15q57 0 108 29q53 30 87 84z" />
    <glyph glyph-name="q" unicode="q" horiz-adv-x="1146" 
d="M1154 -444h-533v67q21 1 61 5q32 3 54 10q31 10 43 35t12 59v364l-6 2q-21 -23 -45 -42q-26 -21 -62 -38q-37 -19 -77 -32q-37 -12 -93 -12q-89 0 -170 38q-80 38 -138 106q-59 68 -94 168q-34 98 -34 218q0 114 40 206t106 161q62 63 152 103q89 39 175 39q60 0 115 -13
q49 -11 87 -29q35 -15 62 -33q32 -21 44 -28l85 130l57 -8q-10 -157 -11 -182q-6 -108 -6 -189v-912q0 -36 13 -61q13 -24 42 -38q24 -11 61 -18q38 -8 60 -9v-67zM791 183v589q-8 26 -27 56q-20 31 -45 53q-27 23 -69 40q-39 16 -93 16q-118 0 -197 -121t-79 -333
q0 -84 15 -152q15 -65 54 -127q38 -58 91 -90q56 -33 139 -33q70 0 123 31q49 29 88 71z" />
    <glyph glyph-name="r" unicode="r" horiz-adv-x="839" 
d="M827 859q0 -53 -25 -91q-26 -39 -77 -39q-54 0 -85 29q-30 28 -30 64q0 16 4 40l6 36q-46 0 -110 -38t-107 -108v-574q0 -35 13 -57t43 -33q25 -10 65 -15q55 -6 68 -7v-66h-520v66q7 0 23.5 1.5t24.5 2.5q22 1 42 8q28 9 42 32q13 22 13 58v609q0 31 -15 61
q-15 31 -40 48q-20 12 -45 18q-23 5 -56 7v65l328 22l14 -14v-139h5q62 81 138 123t139 42q64 0 103 -41t39 -110z" />
    <glyph glyph-name="s" unicode="s" horiz-adv-x="885" 
d="M723 483q40 -36 63 -83q22 -45 22 -115q0 -137 -102 -224t-266 -87q-87 0 -158 31q-73 32 -104 57l-20 -65h-75l-10 343h69q7 -35 34 -91q25 -51 63 -94q40 -44 93 -74q54 -30 123 -30q96 0 148 43t52 125q0 42 -17 73t-48 53q-35 24 -81 41q-61 23 -107 37
q-37 11 -104 39q-60 25 -99 57q-43 34 -72 86q-28 50 -28 120q0 121 90 205t241 84q58 0 118 -15q63 -16 99 -36l23 52h72l15 -317h-69q-21 106 -90 172q-70 67 -170 67q-82 0 -129 -41t-47 -99q0 -43 16 -75q15 -30 46 -51q26 -17 76 -37q40 -16 112 -40q68 -21 124 -49
q63 -31 97 -62z" />
    <glyph glyph-name="t" unicode="t" horiz-adv-x="707" 
d="M681 43q-65 -27 -123 -45q-62 -19 -142 -19q-123 0 -174 63t-51 176v668h-178v96h182v307h182v-307h283v-96h-281v-551q0 -56 5 -103q4 -41 21 -73q17 -29 48 -44t86 -15q30 0 73 4q50 5 69 12v-73z" />
    <glyph glyph-name="u" unicode="u" horiz-adv-x="1178" 
d="M1129 18l-321 -22l-15 14v125h-6q-15 -16 -54 -53q-33 -31 -69 -52q-47 -28 -87 -41q-44 -14 -119 -14q-131 0 -200 85q-68 84 -68 249v472q0 36 -14 61q-14 24 -39 42q-18 12 -45 18q-24 5 -57 7v65l329 24l15 -14v-685q0 -107 48 -161t115 -54q53 0 98 17q41 16 72 40
q27 21 48 45q20 23 31 43v559q0 32 -14 58t-39 44q-16 11 -54 14q-47 4 -79 5v65l358 24l15 -14v-783q0 -33 14 -58t39 -41q19 -11 43 -14q33 -4 55 -5v-65z" />
    <glyph glyph-name="v" unicode="v" horiz-adv-x="1017" 
d="M1046 925q-42 -7 -86 -33q-40 -24 -69 -86q-64 -146 -122 -280q-95 -220 -131 -305q-21 -49 -42 -109q-25 -70 -42 -121h-78q-53 131 -175 429q-43 106 -166 396q-19 46 -65 72q-43 24 -89 32v66h456v-70q-37 -2 -75 -12q-45 -12 -45 -32q0 -3 5 -16q9 -23 10 -28
q25 -63 116 -285q22 -54 44.5 -109t45 -108.5t32.5 -77.5q3 7 36 85.5t54 128.5q65 153 118 286q7 18 19 50q9 24 9 48q0 17 -16 30q-15 12 -40 24q-22 10 -45 15q-34 7 -36 7v64h377v-61z" />
    <glyph glyph-name="w" unicode="w" horiz-adv-x="1510" 
d="M1541 922q-45 -5 -91 -35q-47 -31 -70 -93q-62 -185 -94 -278q-16 -46 -49.5 -145.5t-50.5 -150.5q-19 -56 -36 -112q-29 -98 -34 -115h-86l-265 726l-267 -726h-82q-38 112 -146 441q-76 230 -127 380q-17 48 -61 74q-46 28 -87 32v66h440v-70q-36 -2 -71 -11
q-39 -11 -39 -33q0 -4 3 -17q1 -5 4.5 -15t4.5 -13q17 -56 73 -235q14 -43 48.5 -155.5t55.5 -180.5l252 710h96l257 -700q73 223 85 260q54 162 75 235q3 9 7 25.5t6 21.5q7 25 7 43q0 19 -16 32q-18 14 -39 23q-19 7 -44 12q-21 4 -34 4v64h375v-64z" />
    <glyph glyph-name="x" unicode="x" horiz-adv-x="1034" 
d="M1022 0h-452v66q20 2 76 10q32 5 32 26q0 9 -10 28q-12 23 -20 35q-5 8 -28 44t-40 61q-9 14 -107 156q-53 -64 -96 -126q-53 -75 -92 -131q-8 -12 -15 -25q-7 -14 -7 -24q0 -21 29 -36q30 -16 85 -20v-64h-365v62q68 20 110 48q40 27 76 71q49 63 86 110q61 78 144 190
q-5 7 -50 72t-74 107q-104 149 -122 175q-23 34 -60 61q-33 24 -94 24v66h429v-66q-35 0 -63 -4q-31 -4 -31 -18q0 -10 6 -20t15 -24q2 -4 26 -40.5t42 -64.5q30 -45 101 -150q12 17 39 54t42 58q62 86 86 122q2 4 8 17q4 9 4 21q0 21 -34 33q-42 15 -66 18v64h364v-62
q-72 -18 -120 -48q-42 -26 -73 -63q-41 -50 -79 -101q-72 -96 -127 -168q78 -109 148 -210q51 -74 115 -169q29 -44 64 -69q36 -25 98 -30v-66z" />
    <glyph glyph-name="y" unicode="y" horiz-adv-x="1008" 
d="M-3 -322q0 50 27 82q27 31 69 31q33 0 55 -12q24 -13 41 -31q16 -16 32 -41q6 -10 15.5 -25t11.5 -18q52 28 120 141q67 111 100 200q-43 107 -172 424q-61 149 -161 387q-20 47 -64 72q-42 24 -90 32v66h450v-70q-36 -2 -72 -12q-42 -12 -42 -27q0 -5 5 -20
q8 -24 10 -29q37 -97 116 -286q74 -177 121 -298q16 38 47 112.5t46 109.5q60 141 109 270q1 4 5 13.5t7.5 19t7.5 19.5q13 32 13 58q0 25 -46 48q-47 24 -86 28v64h366v-62q-30 -5 -79 -34q-49 -30 -73 -84q-125 -292 -212 -503q-108 -263 -140 -334q-67 -147 -112 -219
q-48 -75 -97 -123q-47 -43 -83 -57q-35 -14 -78 -14q-78 0 -122 37q-45 37 -45 85z" />
    <glyph glyph-name="z" unicode="z" horiz-adv-x="909" 
d="M853 0h-798v53l558 852h-138q-87 0 -136 -3q-48 -3 -90 -20q-29 -11 -53 -63q-24 -53 -42 -136h-61v303h754v-41l-567 -864q24 -1 79 -1q14 0 45 -0.5t48 -0.5q55 0 84 1q75 3 111 5q40 1 61 27q20 24 31 57q17 47 27 80q15 51 27 99h60v-348z" />
    <glyph glyph-name="braceleft" unicode="{" horiz-adv-x="881" 
d="M814 -333q-105 0 -189 15q-87 16 -141 54q-57 40 -88 110q-29 67 -29 181q0 65 7 129q8 74 8 125q0 71 -21 119t-62 77t-99 42t-128 18v129q76 6 130 20q61 15 98 42q43 31 62 78q20 49 20 116q0 52 -8 126q-7 64 -7 129q0 107 29 175q31 72 88 113q60 43 142 57
q86 15 188 15v-82q-37 -1 -93 -11q-54 -9 -84 -25q-37 -20 -59 -63t-22 -118v-234q0 -106 -25 -174q-26 -70 -74 -112q-44 -39 -107 -64q-59 -23 -138 -37v-31q68 -13 136 -37q60 -22 109 -64q48 -43 73 -111q26 -70 26 -175v-233q0 -71 21 -115q22 -45 60 -67
q36 -20 87 -28q50 -8 90 -9v-80z" />
    <glyph glyph-name="bar" unicode="|" horiz-adv-x="768" 
d="M448 -424h-127v1947h127v-1947z" />
    <glyph glyph-name="braceright" unicode="}" horiz-adv-x="881" 
d="M809 537q-63 -4 -129 -19q-61 -14 -98 -41q-41 -29 -62 -77t-21 -119q0 -61 7 -125q8 -74 8 -129q0 -112 -30 -181q-31 -71 -87 -110q-55 -39 -141 -54q-84 -15 -189 -15v80q42 2 91 9q51 8 86 28q38 22 60 67q21 44 21 115v233q0 105 26 175q25 68 73 111q48 42 110 64
q69 25 135 37v31q-79 14 -138 37q-63 25 -107 64q-48 42 -74 112q-25 68 -25 174v234q0 74 -23 118t-58 63q-30 16 -84 25q-56 10 -93 11v82q103 0 188 -15q82 -14 142 -57q56 -40 87 -113q30 -70 30 -175q0 -55 -8 -129q-7 -64 -7 -126q0 -69 19 -116q19 -46 63 -78
q39 -26 97 -41q60 -15 131 -21v-129z" />
    <glyph glyph-name="asciitilde" unicode="~" 
d="M1187 714q-12 -33 -47 -92t-72 -96q-49 -49 -104 -78q-53 -28 -118 -28q-69 0 -132 22q-65 23 -110 46q-60 30 -100 47q-50 21 -100 21q-67 0 -110 -46q-45 -48 -86 -130l-78 31q15 41 46 92q32 53 74 96q39 42 100 74t121 32q73 0 133 -21q57 -20 111 -47q24 -12 99 -47
q45 -21 99 -21q70 0 115 49q42 47 81 127z" />
  </font>
</defs>
</svg>
