<?xml version="1.0" standalone="no"?>
<!DOCTYPE svg PUBLIC "-//W3C//DTD SVG 20010904//EN"
 "http://www.w3.org/TR/2001/REC-SVG-20010904/DTD/svg10.dtd">
<svg version="1.0" xmlns="http://www.w3.org/2000/svg"
 width="200.000000pt" height="200.000000pt" viewBox="0 0 200.000000 200.000000"
 preserveAspectRatio="xMidYMid meet">

<g transform="translate(0.000000,200.000000) scale(0.100000,-0.100000)"
fill="#000000" stroke="none">
<path d="M870 1943 c-36 -2 -69 -8 -74 -14 -6 -5 -27 -9 -48 -9 -21 0 -38 -4
-38 -9 0 -5 -22 -12 -50 -16 -27 -4 -50 -10 -50 -13 0 -7 -39 -25 -77 -37 -12
-3 -25 -15 -28 -26 -9 -26 3 -106 16 -114 5 -4 9 -28 9 -55 0 -29 5 -50 13
-53 10 -4 9 -6 0 -6 -15 -1 -18 -41 -3 -41 6 0 10 -15 10 -34 0 -19 -4 -38
-10 -41 -12 -8 -13 -155 -1 -155 4 0 11 -34 13 -76 3 -41 10 -80 17 -87 6 -6
11 -33 11 -59 0 -26 5 -48 10 -48 6 0 10 -7 10 -15 0 -8 5 -15 11 -15 16 0 35
-23 44 -50 l7 -25 -19 22 c-10 12 -31 25 -46 28 -15 4 -30 11 -33 16 -3 5 -12
9 -20 9 -20 0 -19 -66 1 -74 9 -3 15 -19 15 -41 0 -19 3 -35 6 -35 13 0 34 30
34 49 0 12 6 21 15 21 12 0 15 -14 15 -69 0 -48 4 -70 13 -74 10 -4 13 2 9 19
-5 26 10 32 32 12 10 -9 10 -17 3 -29 -8 -13 -6 -21 6 -34 9 -9 17 -22 17 -29
0 -18 24 -66 33 -66 14 0 6 -21 -18 -45 -29 -30 -45 -32 -45 -5 0 23 -6 24
-43 8 -26 -13 -37 -38 -17 -38 6 0 10 -9 10 -20 0 -11 4 -20 10 -20 5 0 13
-18 16 -40 6 -38 24 -57 24 -25 0 8 7 15 15 15 8 0 15 -7 15 -15 0 -8 3 -15 8
-15 10 0 29 -47 36 -92 4 -21 11 -38 16 -38 6 0 10 -9 10 -20 0 -11 4 -20 9
-20 5 0 12 -13 16 -28 3 -15 15 -34 25 -42 11 -8 20 -20 20 -27 0 -15 47 -63
62 -63 6 0 19 -10 30 -22 14 -16 21 -19 30 -10 15 15 58 16 58 2 0 -5 -7 -10
-15 -10 -9 0 -15 -9 -15 -25 0 -25 14 -34 24 -16 4 5 0 12 -6 14 -22 9 14 27
55 27 27 0 37 -4 37 -16 0 -23 79 -15 94 10 15 27 84 96 95 96 5 0 11 -6 13
-12 3 -9 9 -8 21 4 19 19 22 44 7 53 -14 8 -13 52 1 57 6 2 14 27 16 54 l5 51
-36 -2 c-21 0 -42 -7 -47 -15 -8 -13 -11 -12 -20 3 -11 19 -29 23 -29 6 0 -15
-26 -39 -42 -39 -25 0 -38 23 -38 68 0 47 -17 72 -49 72 -16 0 -21 6 -21 25 0
14 5 25 10 25 6 0 10 11 10 24 0 22 5 25 55 31 30 4 55 11 55 16 0 5 16 9 35
9 19 0 35 4 35 9 0 5 8 12 18 14 9 3 2 5 -15 6 -32 1 -48 21 -18 21 8 0 15 5
15 10 0 6 11 10 25 10 20 0 25 -5 25 -25 0 -19 5 -25 23 -25 12 0 29 -9 37
-20 8 -11 25 -20 37 -20 21 0 23 -4 23 -55 0 -49 -2 -55 -21 -55 -14 0 -19 -5
-17 -17 5 -27 29 -21 49 12 19 32 25 105 9 105 -14 0 -12 27 3 34 10 5 10 7 0
12 -7 3 -13 15 -13 26 0 12 -22 42 -50 69 -27 26 -50 52 -50 57 0 10 -34 52
-43 52 -3 0 -18 5 -34 11 -21 8 -24 12 -13 19 12 7 12 12 0 36 -12 21 -12 28
-2 31 14 5 16 46 3 71 -6 9 -13 34 -16 55 -3 20 -10 37 -15 37 -6 0 -10 11
-10 25 0 16 -6 25 -15 25 -8 0 -15 5 -15 10 0 6 -9 10 -20 10 -22 0 -27 15 -7
24 6 3 -37 3 -97 0 -100 -5 -111 -8 -128 -30 -25 -31 -38 -31 -38 1 0 28 18
66 38 78 17 11 15 57 -3 57 -17 0 -22 65 -5 75 16 10 12 22 -10 28 -16 4 -20
14 -20 49 0 38 5 49 38 81 35 35 42 37 100 37 35 0 62 4 62 10 0 6 35 10 85
10 69 0 85 3 85 15 0 9 9 15 25 15 14 0 25 -4 25 -10 0 -5 11 -12 25 -16 16
-4 25 -13 25 -25 0 -10 7 -19 15 -19 8 0 15 -5 15 -10 0 -15 61 -73 68 -65 4
3 1 9 -5 13 -6 4 -15 20 -18 35 -5 17 -14 27 -26 27 -14 0 -19 7 -19 25 0 18
-5 25 -20 25 -13 0 -24 10 -30 25 -5 14 -17 25 -25 25 -9 0 -19 8 -22 18 -11
30 -62 72 -96 79 -17 3 -39 14 -48 24 -23 26 -63 34 -82 15 -21 -21 -30 -20
-56 8 -21 22 -25 23 -49 10 -15 -8 -33 -14 -39 -14 -7 0 -13 -3 -13 -8 0 -8
-11 -14 -77 -45 -21 -10 -46 -23 -55 -28 -23 -12 -48 -12 -48 1 0 6 7 10 15
10 8 0 15 5 15 10 0 6 6 10 13 10 15 0 67 51 67 66 0 16 52 33 128 40 39 3 72
11 72 15 0 5 9 9 20 9 11 0 20 -4 20 -9 0 -5 40 -11 89 -13 75 -2 93 -6 113
-25 13 -12 35 -25 51 -28 24 -6 27 -12 27 -50 0 -23 7 -56 15 -71 8 -16 15
-39 15 -51 0 -14 8 -24 23 -29 12 -4 25 -12 30 -18 5 -8 10 -7 16 3 6 9 11 10
15 2 4 -6 29 -11 57 -11 38 0 49 -4 49 -16 0 -10 -6 -13 -19 -9 -13 4 -20 0
-24 -15 -3 -11 -17 -24 -32 -30 -25 -9 -26 -12 -19 -57 4 -27 11 -49 15 -51 5
-2 9 -12 9 -23 0 -10 7 -19 15 -19 8 0 15 5 15 10 0 6 7 10 15 10 8 0 19 10
26 21 25 48 68 79 108 79 25 0 41 -5 45 -15 3 -8 17 -15 31 -15 14 0 25 -4 25
-10 0 -5 5 -10 10 -10 6 0 10 11 10 25 0 14 -4 25 -10 25 -5 0 -10 6 -10 14 0
8 -6 21 -13 28 -7 7 -16 21 -20 31 -4 11 -16 21 -27 24 -11 3 -20 14 -20 25 0
25 -71 95 -105 104 -19 5 -24 11 -20 24 4 14 -1 20 -23 24 -15 4 -34 16 -42
26 -8 11 -20 20 -26 20 -7 0 -19 6 -26 13 -7 7 -30 21 -50 30 -21 10 -38 22
-38 27 0 6 -11 10 -24 10 -14 0 -27 4 -31 9 -3 6 -26 13 -50 17 -25 3 -45 10
-45 15 0 5 -10 9 -23 9 -13 0 -28 5 -33 10 -11 11 -223 20 -324 13z m610 -164
c0 -5 -7 -9 -15 -9 -8 0 -15 7 -15 15 0 9 6 12 15 9 8 -4 15 -10 15 -15z
m-888 -271 c-9 -9 -12 -7 -12 12 0 19 3 21 12 12 9 -9 9 -15 0 -24z m-12 -28
c0 -5 -4 -10 -10 -10 -5 0 -10 5 -10 10 0 6 5 10 10 10 6 0 10 -4 10 -10z
m436 -345 c-16 -17 -36 -20 -36 -6 0 10 17 19 38 20 10 1 10 -3 -2 -14z m54
-30 c-7 -8 -24 -15 -37 -15 -22 0 -24 2 -13 15 7 8 24 15 37 15 22 0 24 -2 13
-15z m10 -25 c0 -5 -4 -10 -10 -10 -5 0 -10 5 -10 10 0 6 5 10 10 10 6 0 10
-4 10 -10z m100 0 c0 -5 7 -10 15 -10 12 0 15 -14 15 -65 0 -37 4 -65 10 -65
6 0 10 -18 10 -40 0 -48 -19 -54 -21 -7 l-2 32 -4 -30 c-3 -16 -9 -34 -14 -40
-5 -5 -9 -33 -9 -62 0 -35 -4 -53 -12 -53 -16 0 -88 -71 -88 -87 0 -7 -4 -13
-10 -13 -5 0 -10 -24 -11 -52 0 -29 -3 -46 -6 -38 -4 8 -17 24 -30 35 -15 14
-23 31 -23 53 0 30 -2 33 -22 27 -18 -5 -20 -4 -8 4 12 9 13 14 3 31 -7 11
-13 38 -13 60 0 29 -4 40 -15 40 -8 0 -15 5 -15 10 0 6 -7 10 -15 10 -8 0 -15
5 -15 11 0 6 -16 26 -35 45 -30 29 -35 40 -35 79 0 38 3 45 19 45 11 0 22 4
25 9 7 11 76 10 76 -1 0 -20 40 -6 52 19 20 40 43 51 66 30 24 -22 72 -13 79
14 5 20 33 27 33 9z m94 -837 c-5 -5 -12 -12 -16 -18 -4 -6 -8 -2 -8 8 0 9 7
17 17 17 9 0 12 -3 7 -7z m56 -13 c0 -5 -4 -10 -10 -10 -5 0 -10 5 -10 10 0 6
5 10 10 10 6 0 10 -4 10 -10z m-350 -100 c0 -5 -4 -10 -10 -10 -5 0 -10 5 -10
10 0 6 5 10 10 10 6 0 10 -4 10 -10z"/>
<path d="M410 1752 c-14 -9 -34 -27 -45 -39 -11 -13 -26 -23 -32 -23 -14 0
-73 -58 -73 -72 0 -6 -11 -23 -25 -37 -42 -43 -72 -85 -80 -111 -4 -14 -11
-27 -14 -30 -10 -7 -41 -76 -41 -89 0 -6 -4 -11 -10 -11 -5 0 -10 -11 -10 -25
0 -14 -4 -25 -9 -25 -5 0 -12 -39 -16 -87 -4 -48 -12 -94 -18 -104 -8 -13 -7
-21 6 -34 16 -15 17 -15 17 9 0 21 5 26 25 26 22 0 25 -4 23 -26 -2 -15 3 -29
10 -31 7 -3 12 5 12 21 0 14 5 26 10 26 6 0 10 34 10 83 0 114 5 127 45 127
31 0 65 -25 65 -48 0 -22 15 -12 28 18 14 32 30 38 50 18 15 -15 16 -48 2 -48
-6 0 -10 -35 -10 -85 0 -47 4 -85 9 -85 5 0 12 -63 16 -140 4 -77 11 -140 16
-140 5 0 9 -20 9 -45 0 -25 5 -45 10 -45 6 0 10 -7 10 -15 0 -8 7 -15 15 -15
8 0 15 -4 15 -10 0 -18 36 -11 56 11 14 16 15 23 7 26 -10 4 -13 58 -13 228 0
123 -4 226 -8 229 -5 3 -12 92 -15 198 -4 116 -11 194 -17 196 -5 2 -10 15
-10 28 0 15 -6 24 -15 24 -8 0 -15 5 -15 10 0 6 6 10 13 10 21 0 38 49 24 70
-9 15 -8 23 5 37 14 17 14 44 0 42 -4 0 -18 -8 -32 -17z m-25 -68 c-9 -9 -19
-13 -23 -10 -3 4 0 11 8 16 24 15 33 11 15 -6z m-49 -158 c16 -16 19 -86 4
-86 -5 0 -10 -7 -10 -15 0 -21 -20 -19 -22 3 -6 76 -4 112 8 112 3 0 12 -6 20
-14z"/>
<path d="M1600 1325 c0 -9 -12 -20 -26 -25 l-26 -10 7 -97 c4 -58 12 -102 20
-110 8 -7 16 -10 18 -5 8 12 20 262 13 262 -3 0 -6 -7 -6 -15z"/>
<path d="M1406 1224 c-3 -9 -4 -20 0 -25 3 -5 0 -9 -6 -9 -16 0 -70 -65 -70
-85 0 -9 59 -5 65 5 3 6 1 10 -4 10 -6 0 -11 5 -11 10 0 6 11 10 25 10 14 0
25 -4 25 -10 0 -5 -5 -10 -12 -10 -9 0 -9 -3 0 -12 7 -7 12 -22 12 -35 0 -19
5 -23 28 -23 37 0 52 17 52 58 0 30 -2 33 -15 22 -13 -11 -15 -7 -15 24 0 20
-4 36 -10 36 -5 0 -10 7 -10 15 0 8 -7 15 -15 15 -8 0 -15 5 -15 10 0 16 -17
12 -24 -6z"/>
<path d="M1480 1205 c0 -8 7 -15 15 -15 8 0 15 -7 15 -15 0 -8 5 -15 10 -15 6
0 10 7 10 15 0 8 -4 15 -10 15 -5 0 -10 7 -10 15 0 8 -7 15 -15 15 -8 0 -15
-7 -15 -15z"/>
<path d="M110 1010 c0 -5 -18 -10 -40 -10 l-40 0 0 -54 c0 -30 4 -57 9 -60 4
-3 11 -37 15 -76 4 -38 11 -70 17 -70 5 0 9 -11 9 -24 0 -14 5 -28 10 -31 6
-3 10 -13 10 -21 0 -20 33 -94 42 -94 5 0 8 -7 8 -15 0 -8 7 -15 15 -15 10 0
15 10 15 29 0 16 -7 34 -15 41 -12 10 -15 42 -15 166 0 91 -4 155 -10 159 -5
3 -10 24 -10 46 0 21 -4 39 -10 39 -5 0 -10 -4 -10 -10z"/>
<path d="M580 809 c0 -5 5 -7 10 -4 6 3 10 8 10 11 0 2 -4 4 -10 4 -5 0 -10
-5 -10 -11z"/>
<path d="M1872 758 c-15 -15 -16 -45 -1 -54 14 -8 26 5 34 39 8 29 -10 38 -33
15z"/>
<path d="M1750 630 c0 -5 7 -10 15 -10 8 0 15 5 15 10 0 6 -7 10 -15 10 -8 0
-15 -4 -15 -10z"/>
<path d="M201 584 c0 -11 3 -14 6 -6 3 7 2 16 -1 19 -3 4 -6 -2 -5 -13z"/>
<path d="M1200 547 c0 -37 29 -57 73 -50 20 3 37 10 37 14 0 5 9 9 21 9 11 0
27 6 34 14 24 24 -4 36 -87 36 -75 0 -78 -1 -78 -23z"/>
<path d="M1360 291 c0 -5 -3 -18 -7 -28 -6 -17 -6 -17 10 -1 19 18 22 38 7 38
-5 0 -10 -4 -10 -9z"/>
<path d="M1051 73 c-1 -16 5 -23 18 -23 11 0 23 5 26 10 3 6 -3 10 -14 10 -10
0 -22 6 -24 13 -3 6 -6 2 -6 -10z"/>
</g>
</svg>
