<?xml version="1.0" standalone="no"?>
<!DOCTYPE svg PUBLIC "-//W3C//DTD SVG 20010904//EN"
 "http://www.w3.org/TR/2001/REC-SVG-20010904/DTD/svg10.dtd">
<svg version="1.0" xmlns="http://www.w3.org/2000/svg"
 width="64.000000pt" height="64.000000pt" viewBox="0 0 64.000000 64.000000"
 preserveAspectRatio="xMidYMid meet">

<g transform="translate(0.000000,64.000000) scale(0.100000,-0.100000)"
fill="#000000" stroke="none">
<path d="M216 606 c-53 -20 -55 -24 -46 -81 4 -27 5 -55 3 -62 -7 -17 17 -125
31 -142 9 -12 8 -12 -11 -2 -24 12 -28 6 -17 -24 5 -13 8 -14 15 -3 6 9 9 6 9
-11 0 -13 3 -21 7 -18 8 9 35 -52 28 -64 -3 -4 -13 -5 -22 -2 -13 5 -15 2 -10
-11 4 -10 7 -22 7 -27 0 -6 4 -8 9 -4 5 3 15 -11 21 -30 16 -49 57 -96 77 -88
9 4 14 2 11 -3 -4 -5 6 -9 21 -9 37 0 77 34 86 73 6 30 5 32 -19 30 -14 -1
-26 -6 -26 -10 0 -4 -4 -8 -10 -8 -5 0 -10 9 -10 20 0 11 -4 20 -10 20 -5 0
-10 8 -10 19 0 14 10 21 35 25 20 4 33 11 30 17 -10 15 4 10 24 -8 11 -10 21
-27 24 -38 3 -12 5 -6 6 15 1 27 -7 44 -29 68 -19 21 -30 44 -30 63 0 45 -34
72 -81 66 -35 -5 -38 -3 -29 13 6 12 6 29 -1 50 -15 41 -2 54 71 68 50 9 57 9
80 -11 15 -13 19 -15 11 -4 -11 14 -11 17 0 16 8 0 23 -4 34 -8 17 -7 18 -9 2
-17 -11 -6 -14 -17 -10 -32 l6 -23 22 21 c17 16 29 19 51 14 27 -7 28 -6 14
12 -31 41 -102 103 -138 120 -49 24 -173 29 -226 10z m213 -30 c5 -6 13 -25
17 -41 l7 -30 -37 33 c-20 17 -40 32 -44 33 -4 0 -18 2 -32 4 -14 1 -35 -3
-47 -11 -31 -20 -39 -17 -19 5 26 29 133 34 155 7z m-44 -289 c-4 -25 -16 -54
-26 -63 -10 -9 -19 -24 -19 -33 -1 -25 -30 18 -30 44 0 11 -9 26 -21 33 -28
18 -22 58 8 54 12 -2 24 2 27 7 4 6 13 8 20 5 8 -3 17 0 21 6 15 24 27 -8 20
-53z"/>
<path d="M92 528 c-33 -35 -66 -102 -75 -154 -5 -28 -4 -31 13 -27 15 4 20 14
20 39 0 33 12 45 25 24 3 -5 12 -7 20 -3 12 4 15 -5 16 -43 1 -89 13 -149 29
-152 13 -2 15 14 12 110 -1 62 -6 131 -11 154 -4 22 -4 50 0 62 12 33 -11 28
-49 -10z m15 -70 c-3 -7 -5 -2 -5 12 0 14 2 19 5 13 2 -7 2 -19 0 -25z"/>
<path d="M507 424 c-4 -4 -7 -23 -6 -43 l1 -36 9 33 c11 36 9 58 -4 46z"/>
<path d="M442 378 c-17 -17 -15 -25 10 -31 27 -7 45 2 27 14 -12 8 -11 11 1
19 12 8 11 10 -5 10 -12 0 -26 -5 -33 -12z"/>
<path d="M15 278 c11 -64 32 -111 47 -102 9 6 9 9 0 12 -7 2 -12 23 -12 52 0
58 -7 80 -27 80 -12 0 -13 -8 -8 -42z"/>
<path d="M388 168 c8 -8 17 -8 34 0 22 10 21 11 -11 11 -27 1 -32 -2 -23 -11z"/>
</g>
</svg>
