<?xml version="1.0" standalone="no"?>
<!DOCTYPE svg PUBLIC "-//W3C//DTD SVG 20010904//EN"
 "http://www.w3.org/TR/2001/REC-SVG-20010904/DTD/svg10.dtd">
<svg version="1.0" xmlns="http://www.w3.org/2000/svg"
 width="120.000000pt" height="120.000000pt" viewBox="0 0 120.000000 120.000000"
 preserveAspectRatio="xMidYMid meet">

<g transform="translate(0.000000,120.000000) scale(0.100000,-0.100000)"
fill="#000000" stroke="none">
<path d="M505 1160 c-72 -12 -182 -49 -197 -67 -8 -10 -8 -25 2 -56 6 -23 13
-100 15 -172 2 -71 8 -143 14 -158 6 -16 11 -39 11 -51 0 -13 11 -35 25 -50
33 -36 32 -40 -7 -16 -18 11 -36 20 -40 20 -11 0 -10 -34 1 -46 5 -5 11 -18
14 -29 5 -19 5 -19 12 3 11 35 25 26 25 -17 0 -22 4 -43 10 -46 6 -4 7 1 3 11
-4 12 -2 15 8 12 8 -3 14 -11 14 -19 0 -8 8 -32 18 -53 16 -36 16 -41 2 -55
-12 -13 -17 -13 -24 -3 -6 10 -41 8 -41 -3 0 -10 40 -87 40 -77 0 23 18 12 30
-20 32 -89 58 -136 92 -170 33 -33 68 -53 54 -30 -3 4 15 3 40 -2 24 -6 44
-14 44 -18 0 -5 10 -8 23 -8 13 0 33 14 50 35 16 20 36 34 45 33 9 -2 18 5 20
16 3 12 0 16 -8 11 -7 -4 -5 7 4 30 9 21 16 45 16 55 0 18 -28 23 -47 8 -7 -6
-14 -5 -18 2 -5 8 -11 6 -20 -6 -19 -26 -45 -11 -45 27 0 23 -5 32 -21 36 -15
4 -19 11 -15 27 3 11 6 24 6 28 0 3 24 12 53 18 66 16 92 29 57 30 -20 0 -22
2 -10 10 21 14 40 12 40 -3 0 -7 16 -19 35 -27 30 -12 35 -18 35 -46 0 -18 -6
-34 -12 -37 -7 -2 -9 -8 -5 -13 18 -19 38 30 33 79 -4 38 -14 58 -48 97 -24
28 -50 52 -59 55 -12 4 -15 15 -13 43 5 51 -24 140 -47 147 -11 4 -16 11 -13
17 11 17 -118 -1 -138 -19 -17 -15 -18 -15 -18 1 0 10 8 31 17 47 15 25 16 31
4 38 -9 6 -11 18 -7 35 4 15 2 26 -4 26 -19 0 -10 56 13 78 17 16 41 22 110
28 48 4 87 11 87 15 0 22 33 5 75 -38 38 -39 44 -43 34 -20 -7 15 -16 27 -21
27 -4 0 -8 7 -8 15 0 8 -5 15 -11 15 -6 0 -25 16 -42 36 -43 47 -124 89 -144
73 -11 -10 -17 -9 -30 4 -15 15 -21 13 -81 -19 -69 -36 -120 -48 -65 -15 17
11 35 27 40 36 13 22 84 38 166 36 81 -1 147 -32 147 -67 0 -28 28 -94 40 -95
6 -1 15 -3 20 -4 6 -1 24 -3 40 -4 17 0 30 -6 30 -13 0 -6 -3 -9 -6 -6 -3 3
-16 -4 -29 -16 -22 -20 -23 -27 -14 -59 5 -20 14 -37 19 -37 5 0 24 16 41 35
36 39 53 42 95 20 17 -9 30 -11 32 -5 4 11 -36 80 -46 80 -4 0 -12 10 -17 22
-6 12 -25 33 -44 45 -19 13 -30 23 -25 23 5 0 -23 19 -61 43 -127 79 -262 108
-400 87z m380 -90 c3 -5 1 -10 -4 -10 -6 0 -11 5 -11 10 0 6 2 10 4 10 3 0 8
-4 11 -10z m-270 -390 c-3 -5 -11 -10 -16 -10 -6 0 -7 5 -4 10 3 6 11 10 16
10 6 0 7 -4 4 -10z m32 -24 c0 -8 -8 -11 -19 -8 -10 2 -15 8 -12 13 8 14 31
11 31 -5z m69 -14 c6 -4 14 -36 17 -72 3 -36 2 -54 -2 -40 -7 24 -7 24 -14 -9
-4 -18 -7 -41 -7 -51 0 -10 -16 -34 -35 -53 -26 -26 -35 -44 -35 -67 l0 -33
-20 26 c-11 14 -20 33 -20 42 0 9 -3 14 -7 12 -5 -3 -9 14 -11 36 -1 23 -7 44
-13 45 -5 2 -23 18 -39 35 -53 57 -34 104 36 91 18 -3 31 2 43 18 15 18 21 20
34 10 15 -13 47 -7 47 9 0 11 11 11 26 1z m54 -496 c0 -3 -4 -8 -10 -11 -5 -3
-10 -1 -10 4 0 6 5 11 10 11 6 0 10 -2 10 -4z"/>
<path d="M220 1026 c-55 -43 -105 -106 -142 -180 -33 -65 -62 -195 -47 -210 6
-6 9 -4 9 7 0 9 7 17 16 17 10 0 14 -6 11 -15 -4 -8 -2 -17 2 -20 11 -6 21 30
21 82 0 23 3 48 6 57 9 23 40 20 57 -5 l15 -21 7 22 c11 36 30 17 27 -28 -3
-42 23 -289 34 -316 7 -18 43 -31 53 -19 9 10 -6 394 -18 488 -6 38 -15 71
-20 73 -7 2 -4 10 5 19 8 9 13 22 9 31 -3 8 -1 20 5 27 24 29 -10 23 -50 -9z
m-10 -139 c0 -23 -19 -60 -21 -42 -5 37 -6 61 -2 68 8 13 23 -4 23 -26z"/>
<path d="M947 780 c-16 -15 -18 -27 -12 -74 4 -31 11 -58 15 -61 7 -5 26 143
18 149 -1 2 -11 -5 -21 -14z"/>
<path d="M845 730 c-4 -6 -3 -10 2 -10 4 0 0 -5 -9 -11 -10 -5 -22 -19 -28
-29 -9 -17 -7 -20 10 -20 12 0 18 5 15 10 -3 6 1 10 9 10 9 0 15 -3 15 -7 -1
-5 -1 -16 0 -26 2 -28 45 -18 49 12 2 13 -1 21 -6 17 -5 -3 -12 7 -15 23 -6
29 -32 48 -42 31z"/>
<path d="M890 724 c0 -3 7 -12 15 -20 16 -17 18 -14 9 10 -6 15 -24 23 -24 10z"/>
<path d="M48 602 c-23 -3 -28 -8 -28 -30 1 -66 60 -252 81 -252 12 0 11 37 -1
45 -5 3 -11 48 -11 98 -2 126 -7 143 -41 139z"/>
<path d="M1123 445 c-8 -22 6 -33 17 -15 13 20 12 30 0 30 -6 0 -13 -7 -17
-15z"/>
<path d="M720 327 c0 -28 25 -38 63 -24 53 18 49 32 -10 35 -41 2 -53 0 -53
-11z"/>
<path d="M816 163 c-6 -14 -5 -15 5 -6 7 7 10 15 7 18 -3 3 -9 -2 -12 -12z"/>
<path d="M600 45 c0 -8 4 -15 8 -15 5 0 9 7 9 15 0 8 -4 15 -9 15 -4 0 -8 -7
-8 -15z"/>
<path d="M630 40 c0 -6 7 -10 15 -10 8 0 15 2 15 4 0 2 -7 6 -15 10 -8 3 -15
1 -15 -4z"/>
</g>
</svg>
